<svg xmlns="http://www.w3.org/2000/svg" xml:space="preserve" width="800" height="800" viewBox="0 0 512 512">
  <path
    d="M115.65 306.3a8.53 8.53 0 0 0 7.67-15.25c-1.23-.64-30.45-16.17-38.1-62.06a8.51 8.51 0 0 0-7.5-7.07 8.45 8.45 0 0 0-8.85 5.3c-18.52 46.32 16.4 99.54 17.9 101.78a8.51 8.51 0 0 0 11.82 2.37 8.54 8.54 0 0 0 2.38-11.83c-.2-.33-14.66-22.42-19.11-48.44 14.04 25.03 32.7 34.65 33.8 35.2zM155.27 324.1a8.54 8.54 0 0 0-3.34-16.73c-17.13 3.42-49.53 22.07-49.53 68.1 0 33.4 7 56.56 12.4 69.45-18.68 3.63-29.47 15.38-29.47 32.95 0 19.78 17.95 34.13 42.67 34.13h8.53c14.15 0 22.85-10.6 23.8-11.81a8.53 8.53 0 0 0-13.45-10.51c-.05.06-4.38 5.25-10.35 5.25H128c-12.72 0-25.6-5.86-25.6-17.06 0-4.23 0-17.07 25.6-17.07a8.53 8.53 0 0 0 7.13-13.23c-.17-.24-15.66-24.56-15.66-72.1 0-43.28 34.39-51.07 35.8-51.37zM397.2 444.92c5.4-12.89 12.4-36.05 12.4-69.45 0-46.03-32.4-64.68-49.53-68.1a8.54 8.54 0 0 0-3.34 16.73c1.47.3 35.8 7.67 35.8 51.37 0 47.54-15.5 71.85-15.63 72.06a8.55 8.55 0 0 0 7.1 13.27c25.6 0 25.6 12.84 25.6 17.07 0 11.2-12.88 17.06-25.6 17.06h-8.53c-5.9 0-10.23-5.1-10.4-5.31a8.54 8.54 0 0 0-13.4 10.57c.95 1.2 9.65 11.81 23.8 11.81H384c24.73 0 42.67-14.35 42.67-34.13 0-17.57-10.79-29.32-29.47-32.95zM308.63 444.38l15.52-93.1a8.53 8.53 0 0 0-16.83-2.82l-15.88 95.27h-1.3a8.53 8.53 0 1 0 0 17.07h8.53c25.6 0 25.6 12.84 25.6 17.07 0 11.2-12.88 17.06-25.6 17.06h-8.54a25.63 25.63 0 0 1-25.6-25.6V349.87a8.53 8.53 0 1 0-17.06 0v119.46a25.63 25.63 0 0 1-25.6 25.6h-8.53c-12.73 0-25.6-5.86-25.6-17.06 0-4.23 0-17.07 25.6-17.07h8.53a8.53 8.53 0 1 0 0-17.07h-1.3l-15.89-95.27a8.53 8.53 0 0 0-16.83 2.82l15.52 93.1c-20.67 2.86-32.7 14.93-32.7 33.49 0 19.78 17.95 34.13 42.67 34.13h8.53A42.64 42.64 0 0 0 256 494.9a42.63 42.63 0 0 0 34.13 17.1h8.54c24.73 0 42.66-14.35 42.66-34.13 0-18.56-12.03-30.63-32.7-33.49z" />
  <path
    d="M468.43 72.99C449.67 35.47 404.49 0 375.47 0c-16.48 0-44.84 25.55-59.08 39.48-16.46-14.11-36.5-22.41-60.39-22.41s-43.93 8.3-60.39 22.4C181.37 25.56 153.01 0 136.53 0c-29.02 0-74.2 35.47-92.96 72.99-5.65 11.28-9.44 26.53-9.44 37.94A42.72 42.72 0 0 0 76.8 153.6c21.2 0 30.7-13.94 38.3-25.15.94-1.35 1.86-2.72 2.93-4.25L152.17 73a8.53 8.53 0 1 0-14.2-9.47l-34 51.01c-1.02 1.43-2 2.87-2.98 4.31-7.67 11.3-12.59 17.68-24.2 17.68a25.63 25.63 0 0 1-25.6-25.6c0-8.86 3.15-21.33 7.65-30.32 16.8-33.63 57.45-63.54 77.7-63.54 7.27 0 28.94 16.94 47 34.5-32.06 37.28-47 99.68-47 161.76 0 78.8 34.6 110.94 119.46 110.94s119.47-32.15 119.47-110.94c0-62.09-14.95-124.48-47.01-161.75 18.06-17.57 39.72-34.51 47-34.51 20.25 0 60.9 29.91 77.71 63.54 4.49 8.99 7.63 21.46 7.63 30.32a25.63 25.63 0 0 1-25.6 25.6c-12.02 0-16.77-6.31-24.77-18.4l-36.4-54.6a8.53 8.53 0 1 0-14.2 9.47l36.36 54.55c8.1 12.2 17.25 26.05 39.01 26.05a42.72 42.72 0 0 0 42.67-42.67c0-11.41-3.8-26.66-9.44-37.94zM358.4 213.33c0 69.31-26.8 93.87-102.4 93.87s-102.4-24.56-102.4-93.87c0-89.2 31.67-179.2 102.4-179.2s102.4 90 102.4 179.2z" />
  <path
    d="M299.61 252.1c-1.46 2.83-7.16 3.87-9.48 3.9-9.99 0-20.32-8.5-24.04-18.29 14.02-3.17 24.04-12.69 24.04-24.38 0-14.35-14.99-25.6-34.13-25.6s-34.13 11.25-34.13 25.6c0 11.7 10.01 21.2 24.04 24.38-3.72 9.78-14.04 18.29-23.98 18.29-2.45-.03-8.03-1.07-9.6-4a8.53 8.53 0 1 0-15.07 8c6.75 12.7 22.8 13.07 24.6 13.07 13.26 0 26.08-7.57 34.14-18.4 8.06 10.83 20.88 18.4 34.13 18.4 1.83 0 18.06-.38 24.66-13.16a8.53 8.53 0 1 0-15.18-7.82zM256 221.86c-10.26 0-17.07-5.14-17.07-8.54 0-3.4 6.81-8.53 17.07-8.53 10.42 0 17.07 5.05 17.07 8.53 0 3.48-6.65 8.54-17.07 8.54zM294.4 153.6c7.06 0 12.8-5.74 12.8-12.8s-5.74-12.8-12.8-12.8c-7.06 0-12.8 5.74-12.8 12.8s5.74 12.8 12.8 12.8zM217.6 153.6c7.06 0 12.8-5.74 12.8-12.8s-5.74-12.8-12.8-12.8-12.8 5.74-12.8 12.8 5.74 12.8 12.8 12.8z" />
</svg>